<svg id="visual" viewBox="0 0 960 540" width="960" height="540" xmlns="http://www.w3.org/2000/svg" xmlns:xlink="http://www.w3.org/1999/xlink" version="1.1" style="opacity: 0.2;"><rect x="0" y="0" width="960" height="540" fill="#173446"/><defs><linearGradient id="grad1_0" x1="43.8%" y1="100%" x2="100%" y2="0%"><stop offset="14.444444444444446%" stop-color="#ffffff" stop-opacity="1"/><stop offset="85.55555555555554%" stop-color="#ffffff" stop-opacity="1"/></linearGradient></defs><defs><linearGradient id="grad1_1" x1="43.8%" y1="100%" x2="100%" y2="0%"><stop offset="14.444444444444446%" stop-color="#ffffff" stop-opacity="1"/><stop offset="85.55555555555554%" stop-color="#c1c7cd" stop-opacity="1"/></linearGradient></defs><defs><linearGradient id="grad1_2" x1="43.8%" y1="100%" x2="100%" y2="0%"><stop offset="14.444444444444446%" stop-color="#86939e" stop-opacity="1"/><stop offset="85.55555555555554%" stop-color="#c1c7cd" stop-opacity="1"/></linearGradient></defs><defs><linearGradient id="grad1_3" x1="43.8%" y1="100%" x2="100%" y2="0%"><stop offset="14.444444444444446%" stop-color="#86939e" stop-opacity="1"/><stop offset="85.55555555555554%" stop-color="#4e6170" stop-opacity="1"/></linearGradient></defs><defs><linearGradient id="grad1_4" x1="43.8%" y1="100%" x2="100%" y2="0%"><stop offset="14.444444444444446%" stop-color="#173446" stop-opacity="1"/><stop offset="85.55555555555554%" stop-color="#4e6170" stop-opacity="1"/></linearGradient></defs><defs><linearGradient id="grad2_0" x1="0%" y1="100%" x2="56.3%" y2="0%"><stop offset="14.444444444444446%" stop-color="#ffffff" stop-opacity="1"/><stop offset="85.55555555555554%" stop-color="#ffffff" stop-opacity="1"/></linearGradient></defs><defs><linearGradient id="grad2_1" x1="0%" y1="100%" x2="56.3%" y2="0%"><stop offset="14.444444444444446%" stop-color="#c1c7cd" stop-opacity="1"/><stop offset="85.55555555555554%" stop-color="#ffffff" stop-opacity="1"/></linearGradient></defs><defs><linearGradient id="grad2_2" x1="0%" y1="100%" x2="56.3%" y2="0%"><stop offset="14.444444444444446%" stop-color="#c1c7cd" stop-opacity="1"/><stop offset="85.55555555555554%" stop-color="#86939e" stop-opacity="1"/></linearGradient></defs><defs><linearGradient id="grad2_3" x1="0%" y1="100%" x2="56.3%" y2="0%"><stop offset="14.444444444444446%" stop-color="#4e6170" stop-opacity="1"/><stop offset="85.55555555555554%" stop-color="#86939e" stop-opacity="1"/></linearGradient></defs><defs><linearGradient id="grad2_4" x1="0%" y1="100%" x2="56.3%" y2="0%"><stop offset="14.444444444444446%" stop-color="#4e6170" stop-opacity="1"/><stop offset="85.55555555555554%" stop-color="#173446" stop-opacity="1"/></linearGradient></defs><g transform="translate(960, 540)"><path d="M-459 0C-446.9 -80.1 -434.7 -160.1 -397.5 -229.5C-360.3 -298.9 -297.9 -357.6 -227.5 -394C-157.1 -430.5 -78.5 -444.8 0 -459L0 0Z" fill="#334a5b"/><path d="M-367.2 0C-357.5 -64 -347.8 -128.1 -318 -183.6C-288.2 -239.1 -238.3 -286.1 -182 -315.2C-125.7 -344.4 -62.8 -355.8 0 -367.2L0 0Z" fill="#6a7a87"/><path d="M-275.4 0C-268.1 -48 -260.8 -96.1 -238.5 -137.7C-216.2 -179.3 -178.8 -214.5 -136.5 -236.4C-94.2 -258.3 -47.1 -266.9 0 -275.4L0 0Z" fill="#a3adb5"/><path d="M-183.6 0C-178.7 -32 -173.9 -64 -159 -91.8C-144.1 -119.6 -119.2 -143 -91 -157.6C-62.8 -172.2 -31.4 -177.9 0 -183.6L0 0Z" fill="#e0e3e6"/><path d="M-91.8 0C-89.4 -16 -86.9 -32 -79.5 -45.9C-72.1 -59.8 -59.6 -71.5 -45.5 -78.8C-31.4 -86.1 -15.7 -89 0 -91.8L0 0Z" fill="#ffffff"/></g><g transform="translate(0, 0)"><path d="M459 0C444.8 78.5 430.5 157.1 394 227.5C357.6 297.9 298.9 360.3 229.5 397.5C160.1 434.7 80.1 446.9 0 459L0 0Z" fill="#334a5b"/><path d="M367.2 0C355.8 62.8 344.4 125.7 315.2 182C286.1 238.3 239.1 288.2 183.6 318C128.1 347.8 64 357.5 0 367.2L0 0Z" fill="#6a7a87"/><path d="M275.4 0C266.9 47.1 258.3 94.2 236.4 136.5C214.5 178.8 179.3 216.2 137.7 238.5C96.1 260.8 48 268.1 0 275.4L0 0Z" fill="#a3adb5"/><path d="M183.6 0C177.9 31.4 172.2 62.8 157.6 91C143 119.2 119.6 144.1 91.8 159C64 173.9 32 178.7 0 183.6L0 0Z" fill="#e0e3e6"/><path d="M91.8 0C89 15.7 86.1 31.4 78.8 45.5C71.5 59.6 59.8 72.1 45.9 79.5C32 86.9 16 89.4 0 91.8L0 0Z" fill="#ffffff"/></g></svg>
